<svg xmlns="http://www.w3.org/2000/svg" viewBox="0 0 234 234" width="32" height="32" shape-rendering="crispEdges">
<rect width="234" height="234" fill="#131110"/>
<rect x="54" y="9" width="8" height="8" fill="rgb(239,104,44)" stroke="#9B4419" stroke-width="0.75"/><rect x="54" y="18" width="8" height="8" fill="rgb(227,99,42)" stroke="#9B4419" stroke-width="0.75"/><rect x="45" y="27" width="8" height="8" fill="rgb(240,105,45)" stroke="#9B4419" stroke-width="0.75"/><rect x="54" y="27" width="8" height="8" fill="rgb(235,103,44)" stroke="#9B4419" stroke-width="0.75"/><rect x="63" y="27" width="8" height="8" fill="rgb(231,100,43)" stroke="#9B4419" stroke-width="0.75"/><rect x="45" y="36" width="8" height="8" fill="rgb(229,99,42)" stroke="#9B4419" stroke-width="0.75"/><rect x="54" y="36" width="8" height="8" fill="rgb(224,97,41)" stroke="#9B4419" stroke-width="0.75"/><rect x="63" y="36" width="8" height="8" fill="rgb(239,104,44)" stroke="#9B4419" stroke-width="0.75"/><rect x="9" y="45" width="8" height="8" fill="rgb(235,103,44)" stroke="#9B4419" stroke-width="0.75"/><rect x="18" y="45" width="8" height="8" fill="rgb(231,100,43)" stroke="#9B4419" stroke-width="0.75"/><rect x="27" y="45" width="8" height="8" fill="rgb(226,98,42)" stroke="#9B4419" stroke-width="0.75"/><rect x="36" y="45" width="8" height="8" fill="rgb(241,105,45)" stroke="#9B4419" stroke-width="0.75"/><rect x="45" y="45" width="8" height="8" fill="rgb(237,103,44)" stroke="#9B4419" stroke-width="0.75"/><rect x="54" y="45" width="8" height="8" fill="rgb(232,101,43)" stroke="#9B4419" stroke-width="0.75"/><rect x="63" y="45" width="8" height="8" fill="rgb(227,99,42)" stroke="#9B4419" stroke-width="0.75"/><rect x="72" y="45" width="8" height="8" fill="rgb(223,97,41)" stroke="#9B4419" stroke-width="0.75"/><rect x="81" y="45" width="8" height="8" fill="rgb(238,104,44)" stroke="#9B4419" stroke-width="0.75"/><rect x="90" y="45" width="8" height="8" fill="rgb(233,102,43)" stroke="#9B4419" stroke-width="0.75"/><rect x="99" y="45" width="8" height="8" fill="rgb(229,99,42)" stroke="#9B4419" stroke-width="0.75"/><rect x="18" y="54" width="8" height="8" fill="rgb(239,104,44)" stroke="#9B4419" stroke-width="0.75"/><rect x="27" y="54" width="8" height="8" fill="rgb(234,102,43)" stroke="#9B4419" stroke-width="0.75"/><rect x="36" y="54" width="8" height="8" fill="rgb(230,100,43)" stroke="#9B4419" stroke-width="0.75"/><rect x="45" y="54" width="8" height="8" fill="rgb(225,98,42)" stroke="#9B4419" stroke-width="0.75"/><rect x="54" y="54" width="8" height="8" fill="rgb(240,105,45)" stroke="#9B4419" stroke-width="0.75"/><rect x="63" y="54" width="8" height="8" fill="rgb(235,103,44)" stroke="#9B4419" stroke-width="0.75"/><rect x="72" y="54" width="8" height="8" fill="rgb(231,100,43)" stroke="#9B4419" stroke-width="0.75"/><rect x="81" y="54" width="8" height="8" fill="rgb(226,98,42)" stroke="#9B4419" stroke-width="0.75"/><rect x="90" y="54" width="8" height="8" fill="rgb(241,105,45)" stroke="#9B4419" stroke-width="0.75"/><rect x="27" y="63" width="8" height="8" fill="rgb(223,97,41)" stroke="#9B4419" stroke-width="0.75"/><rect x="36" y="63" width="8" height="8" fill="rgb(238,104,44)" stroke="#9B4419" stroke-width="0.75"/><rect x="45" y="63" width="8" height="8" fill="rgb(233,102,43)" stroke="#9B4419" stroke-width="0.75"/><rect x="54" y="63" width="8" height="8" fill="rgb(229,99,42)" stroke="#9B4419" stroke-width="0.75"/><rect x="63" y="63" width="8" height="8" fill="rgb(224,97,41)" stroke="#9B4419" stroke-width="0.75"/><rect x="72" y="63" width="8" height="8" fill="rgb(239,104,44)" stroke="#9B4419" stroke-width="0.75"/><rect x="81" y="63" width="8" height="8" fill="rgb(234,102,43)" stroke="#9B4419" stroke-width="0.75"/><rect x="36" y="72" width="8" height="8" fill="rgb(226,98,42)" stroke="#9B4419" stroke-width="0.75"/><rect x="45" y="72" width="8" height="8" fill="rgb(241,105,45)" stroke="#9B4419" stroke-width="0.75"/><rect x="63" y="72" width="8" height="8" fill="rgb(232,101,43)" stroke="#9B4419" stroke-width="0.75"/><rect x="72" y="72" width="8" height="8" fill="rgb(227,99,42)" stroke="#9B4419" stroke-width="0.75"/><rect x="27" y="81" width="8" height="8" fill="rgb(239,104,44)" stroke="#9B4419" stroke-width="0.75"/><rect x="36" y="81" width="8" height="8" fill="rgb(234,102,43)" stroke="#9B4419" stroke-width="0.75"/><rect x="72" y="81" width="8" height="8" fill="rgb(235,103,44)" stroke="#9B4419" stroke-width="0.75"/><rect x="81" y="81" width="8" height="8" fill="rgb(231,100,43)" stroke="#9B4419" stroke-width="0.75"/><rect x="18" y="90" width="8" height="8" fill="rgb(232,101,43)" stroke="#9B4419" stroke-width="0.75"/><rect x="27" y="90" width="8" height="8" fill="rgb(227,99,42)" stroke="#9B4419" stroke-width="0.75"/><rect x="81" y="90" width="8" height="8" fill="rgb(239,104,44)" stroke="#9B4419" stroke-width="0.75"/><rect x="90" y="90" width="8" height="8" fill="rgb(234,102,43)" stroke="#9B4419" stroke-width="0.75"/><rect x="18" y="99" width="8" height="8" fill="rgb(240,105,45)" stroke="#9B4419" stroke-width="0.75"/><rect x="90" y="99" width="8" height="8" fill="rgb(223,97,41)" stroke="#9B4419" stroke-width="0.75"/><rect x="171" y="9" width="8" height="8" fill="rgb(239,104,44)" stroke="#9B4419" stroke-width="0.75"/><rect x="171" y="18" width="8" height="8" fill="rgb(227,99,42)" stroke="#9B4419" stroke-width="0.75"/><rect x="162" y="27" width="8" height="8" fill="rgb(240,105,45)" stroke="#9B4419" stroke-width="0.75"/><rect x="171" y="27" width="8" height="8" fill="rgb(235,103,44)" stroke="#9B4419" stroke-width="0.75"/><rect x="180" y="27" width="8" height="8" fill="rgb(231,100,43)" stroke="#9B4419" stroke-width="0.75"/><rect x="162" y="36" width="8" height="8" fill="rgb(229,99,42)" stroke="#9B4419" stroke-width="0.75"/><rect x="171" y="36" width="8" height="8" fill="rgb(224,97,41)" stroke="#9B4419" stroke-width="0.75"/><rect x="180" y="36" width="8" height="8" fill="rgb(239,104,44)" stroke="#9B4419" stroke-width="0.75"/><rect x="126" y="45" width="8" height="8" fill="rgb(235,103,44)" stroke="#9B4419" stroke-width="0.75"/><rect x="135" y="45" width="8" height="8" fill="rgb(231,100,43)" stroke="#9B4419" stroke-width="0.75"/><rect x="144" y="45" width="8" height="8" fill="rgb(226,98,42)" stroke="#9B4419" stroke-width="0.75"/><rect x="153" y="45" width="8" height="8" fill="rgb(241,105,45)" stroke="#9B4419" stroke-width="0.75"/><rect x="162" y="45" width="8" height="8" fill="rgb(237,103,44)" stroke="#9B4419" stroke-width="0.75"/><rect x="171" y="45" width="8" height="8" fill="rgb(232,101,43)" stroke="#9B4419" stroke-width="0.75"/><rect x="180" y="45" width="8" height="8" fill="rgb(227,99,42)" stroke="#9B4419" stroke-width="0.75"/><rect x="189" y="45" width="8" height="8" fill="rgb(223,97,41)" stroke="#9B4419" stroke-width="0.75"/><rect x="198" y="45" width="8" height="8" fill="rgb(238,104,44)" stroke="#9B4419" stroke-width="0.75"/><rect x="207" y="45" width="8" height="8" fill="rgb(233,102,43)" stroke="#9B4419" stroke-width="0.75"/><rect x="216" y="45" width="8" height="8" fill="rgb(229,99,42)" stroke="#9B4419" stroke-width="0.75"/><rect x="135" y="54" width="8" height="8" fill="rgb(239,104,44)" stroke="#9B4419" stroke-width="0.75"/><rect x="144" y="54" width="8" height="8" fill="rgb(234,102,43)" stroke="#9B4419" stroke-width="0.75"/><rect x="153" y="54" width="8" height="8" fill="rgb(230,100,43)" stroke="#9B4419" stroke-width="0.75"/><rect x="162" y="54" width="8" height="8" fill="rgb(225,98,42)" stroke="#9B4419" stroke-width="0.75"/><rect x="171" y="54" width="8" height="8" fill="rgb(240,105,45)" stroke="#9B4419" stroke-width="0.75"/><rect x="180" y="54" width="8" height="8" fill="rgb(235,103,44)" stroke="#9B4419" stroke-width="0.75"/><rect x="189" y="54" width="8" height="8" fill="rgb(231,100,43)" stroke="#9B4419" stroke-width="0.75"/><rect x="198" y="54" width="8" height="8" fill="rgb(226,98,42)" stroke="#9B4419" stroke-width="0.75"/><rect x="207" y="54" width="8" height="8" fill="rgb(241,105,45)" stroke="#9B4419" stroke-width="0.75"/><rect x="144" y="63" width="8" height="8" fill="rgb(223,97,41)" stroke="#9B4419" stroke-width="0.75"/><rect x="153" y="63" width="8" height="8" fill="rgb(238,104,44)" stroke="#9B4419" stroke-width="0.75"/><rect x="162" y="63" width="8" height="8" fill="rgb(233,102,43)" stroke="#9B4419" stroke-width="0.75"/><rect x="171" y="63" width="8" height="8" fill="rgb(229,99,42)" stroke="#9B4419" stroke-width="0.75"/><rect x="180" y="63" width="8" height="8" fill="rgb(224,97,41)" stroke="#9B4419" stroke-width="0.75"/><rect x="189" y="63" width="8" height="8" fill="rgb(239,104,44)" stroke="#9B4419" stroke-width="0.75"/><rect x="198" y="63" width="8" height="8" fill="rgb(234,102,43)" stroke="#9B4419" stroke-width="0.75"/><rect x="153" y="72" width="8" height="8" fill="rgb(226,98,42)" stroke="#9B4419" stroke-width="0.75"/><rect x="162" y="72" width="8" height="8" fill="rgb(241,105,45)" stroke="#9B4419" stroke-width="0.75"/><rect x="180" y="72" width="8" height="8" fill="rgb(232,101,43)" stroke="#9B4419" stroke-width="0.75"/><rect x="189" y="72" width="8" height="8" fill="rgb(227,99,42)" stroke="#9B4419" stroke-width="0.75"/><rect x="144" y="81" width="8" height="8" fill="rgb(239,104,44)" stroke="#9B4419" stroke-width="0.75"/><rect x="153" y="81" width="8" height="8" fill="rgb(234,102,43)" stroke="#9B4419" stroke-width="0.75"/><rect x="189" y="81" width="8" height="8" fill="rgb(235,103,44)" stroke="#9B4419" stroke-width="0.75"/><rect x="198" y="81" width="8" height="8" fill="rgb(231,100,43)" stroke="#9B4419" stroke-width="0.75"/><rect x="135" y="90" width="8" height="8" fill="rgb(232,101,43)" stroke="#9B4419" stroke-width="0.75"/><rect x="144" y="90" width="8" height="8" fill="rgb(227,99,42)" stroke="#9B4419" stroke-width="0.75"/><rect x="198" y="90" width="8" height="8" fill="rgb(239,104,44)" stroke="#9B4419" stroke-width="0.75"/><rect x="207" y="90" width="8" height="8" fill="rgb(234,102,43)" stroke="#9B4419" stroke-width="0.75"/><rect x="135" y="99" width="8" height="8" fill="rgb(240,105,45)" stroke="#9B4419" stroke-width="0.75"/><rect x="207" y="99" width="8" height="8" fill="rgb(223,97,41)" stroke="#9B4419" stroke-width="0.75"/><rect x="112.5" y="126" width="8" height="8" fill="rgb(239,104,44)" stroke="#9B4419" stroke-width="0.75"/><rect x="112.5" y="135" width="8" height="8" fill="rgb(227,99,42)" stroke="#9B4419" stroke-width="0.75"/><rect x="103.5" y="144" width="8" height="8" fill="rgb(240,105,45)" stroke="#9B4419" stroke-width="0.75"/><rect x="112.5" y="144" width="8" height="8" fill="rgb(235,103,44)" stroke="#9B4419" stroke-width="0.75"/><rect x="121.5" y="144" width="8" height="8" fill="rgb(231,100,43)" stroke="#9B4419" stroke-width="0.75"/><rect x="103.5" y="153" width="8" height="8" fill="rgb(229,99,42)" stroke="#9B4419" stroke-width="0.75"/><rect x="112.5" y="153" width="8" height="8" fill="rgb(224,97,41)" stroke="#9B4419" stroke-width="0.75"/><rect x="121.5" y="153" width="8" height="8" fill="rgb(239,104,44)" stroke="#9B4419" stroke-width="0.75"/><rect x="67.5" y="162" width="8" height="8" fill="rgb(235,103,44)" stroke="#9B4419" stroke-width="0.75"/><rect x="76.5" y="162" width="8" height="8" fill="rgb(231,100,43)" stroke="#9B4419" stroke-width="0.75"/><rect x="85.5" y="162" width="8" height="8" fill="rgb(226,98,42)" stroke="#9B4419" stroke-width="0.75"/><rect x="94.5" y="162" width="8" height="8" fill="rgb(241,105,45)" stroke="#9B4419" stroke-width="0.75"/><rect x="103.5" y="162" width="8" height="8" fill="rgb(237,103,44)" stroke="#9B4419" stroke-width="0.75"/><rect x="112.5" y="162" width="8" height="8" fill="rgb(232,101,43)" stroke="#9B4419" stroke-width="0.75"/><rect x="121.5" y="162" width="8" height="8" fill="rgb(227,99,42)" stroke="#9B4419" stroke-width="0.75"/><rect x="130.5" y="162" width="8" height="8" fill="rgb(223,97,41)" stroke="#9B4419" stroke-width="0.75"/><rect x="139.5" y="162" width="8" height="8" fill="rgb(238,104,44)" stroke="#9B4419" stroke-width="0.75"/><rect x="148.5" y="162" width="8" height="8" fill="rgb(233,102,43)" stroke="#9B4419" stroke-width="0.75"/><rect x="157.5" y="162" width="8" height="8" fill="rgb(229,99,42)" stroke="#9B4419" stroke-width="0.75"/><rect x="76.5" y="171" width="8" height="8" fill="rgb(239,104,44)" stroke="#9B4419" stroke-width="0.75"/><rect x="85.5" y="171" width="8" height="8" fill="rgb(234,102,43)" stroke="#9B4419" stroke-width="0.75"/><rect x="94.5" y="171" width="8" height="8" fill="rgb(230,100,43)" stroke="#9B4419" stroke-width="0.75"/><rect x="103.5" y="171" width="8" height="8" fill="rgb(225,98,42)" stroke="#9B4419" stroke-width="0.75"/><rect x="112.5" y="171" width="8" height="8" fill="rgb(240,105,45)" stroke="#9B4419" stroke-width="0.75"/><rect x="121.5" y="171" width="8" height="8" fill="rgb(235,103,44)" stroke="#9B4419" stroke-width="0.75"/><rect x="130.5" y="171" width="8" height="8" fill="rgb(231,100,43)" stroke="#9B4419" stroke-width="0.75"/><rect x="139.5" y="171" width="8" height="8" fill="rgb(226,98,42)" stroke="#9B4419" stroke-width="0.75"/><rect x="148.5" y="171" width="8" height="8" fill="rgb(241,105,45)" stroke="#9B4419" stroke-width="0.75"/><rect x="85.5" y="180" width="8" height="8" fill="rgb(223,97,41)" stroke="#9B4419" stroke-width="0.75"/><rect x="94.5" y="180" width="8" height="8" fill="rgb(238,104,44)" stroke="#9B4419" stroke-width="0.75"/><rect x="103.5" y="180" width="8" height="8" fill="rgb(233,102,43)" stroke="#9B4419" stroke-width="0.75"/><rect x="112.5" y="180" width="8" height="8" fill="rgb(229,99,42)" stroke="#9B4419" stroke-width="0.75"/><rect x="121.5" y="180" width="8" height="8" fill="rgb(224,97,41)" stroke="#9B4419" stroke-width="0.75"/><rect x="130.5" y="180" width="8" height="8" fill="rgb(239,104,44)" stroke="#9B4419" stroke-width="0.75"/><rect x="139.5" y="180" width="8" height="8" fill="rgb(234,102,43)" stroke="#9B4419" stroke-width="0.75"/><rect x="94.5" y="189" width="8" height="8" fill="rgb(226,98,42)" stroke="#9B4419" stroke-width="0.75"/><rect x="103.5" y="189" width="8" height="8" fill="rgb(241,105,45)" stroke="#9B4419" stroke-width="0.75"/><rect x="121.5" y="189" width="8" height="8" fill="rgb(232,101,43)" stroke="#9B4419" stroke-width="0.75"/><rect x="130.5" y="189" width="8" height="8" fill="rgb(227,99,42)" stroke="#9B4419" stroke-width="0.75"/><rect x="85.5" y="198" width="8" height="8" fill="rgb(239,104,44)" stroke="#9B4419" stroke-width="0.75"/><rect x="94.5" y="198" width="8" height="8" fill="rgb(234,102,43)" stroke="#9B4419" stroke-width="0.75"/><rect x="130.5" y="198" width="8" height="8" fill="rgb(235,103,44)" stroke="#9B4419" stroke-width="0.75"/><rect x="139.5" y="198" width="8" height="8" fill="rgb(231,100,43)" stroke="#9B4419" stroke-width="0.75"/><rect x="76.5" y="207" width="8" height="8" fill="rgb(232,101,43)" stroke="#9B4419" stroke-width="0.75"/><rect x="85.5" y="207" width="8" height="8" fill="rgb(227,99,42)" stroke="#9B4419" stroke-width="0.75"/><rect x="139.5" y="207" width="8" height="8" fill="rgb(239,104,44)" stroke="#9B4419" stroke-width="0.75"/><rect x="148.5" y="207" width="8" height="8" fill="rgb(234,102,43)" stroke="#9B4419" stroke-width="0.75"/><rect x="76.5" y="216" width="8" height="8" fill="rgb(240,105,45)" stroke="#9B4419" stroke-width="0.75"/><rect x="148.5" y="216" width="8" height="8" fill="rgb(223,97,41)" stroke="#9B4419" stroke-width="0.75"/>
</svg>
