<svg width="36" height="36" viewBox="0 0 36 36" fill="none" xmlns="http://www.w3.org/2000/svg">
  <rect width="36" height="36" rx="2" fill="#E8652B"/>
  <polygon points="18,7.5 19,10.62 22.28,10.61 19.62,12.53 20.65,15.64 18,13.7 15.35,15.64 16.38,12.53 13.72,10.61 17,10.62" fill="#0A0A0A"/>
  <polygon points="12,18.5 13,21.62 16.28,21.61 13.62,23.53 14.65,26.64 12,24.7 9.35,26.64 10.38,23.53 7.72,21.61 11,21.62" fill="#0A0A0A"/>
  <polygon points="24,18.5 25,21.62 28.28,21.61 25.62,23.53 26.65,26.64 24,24.7 21.35,26.64 22.38,23.53 19.72,21.61 23,21.62" fill="#0A0A0A"/>
</svg>
