<svg width="36" height="36" viewBox="0 0 36 36" fill="none" xmlns="http://www.w3.org/2000/svg">
  <rect width="36" height="36" rx="2" fill="#E8652B"/>
  <polygon points="12,7.5 13,10.62 16.28,10.61 13.62,12.53 14.65,15.64 12,13.7 9.35,15.64 10.38,12.53 7.72,10.61 11,10.62" fill="#0A0A0A"/>
  <polygon points="24,7.5 25,10.62 28.28,10.61 25.62,12.53 26.65,15.64 24,13.7 21.35,15.64 22.38,12.53 19.72,10.61 23,10.62" fill="#0A0A0A"/>
  <polygon points="18,18.5 19,21.62 22.28,21.61 19.62,23.53 20.65,26.64 18,24.7 15.35,26.64 16.38,23.53 13.72,21.61 17,21.62" fill="#0A0A0A"/>
</svg>
