<svg xmlns="http://www.w3.org/2000/svg" viewBox="0 0 252 252" width="252" height="252" shape-rendering="crispEdges">
<rect width="252" height="252" fill="#131110"/>
<rect x="63" y="18" width="8" height="8" fill="rgb(239,104,44)" stroke="#9B4419" stroke-width="0.75"/><line x1="67" y1="18" x2="67" y2="26" stroke="#9B4419" stroke-width="0.5"/><line x1="63" y1="22" x2="71" y2="22" stroke="#9B4419" stroke-width="0.5"/><rect x="63" y="27" width="8" height="8" fill="rgb(227,99,42)" stroke="#9B4419" stroke-width="0.75"/><line x1="67" y1="27" x2="67" y2="35" stroke="#9B4419" stroke-width="0.5"/><line x1="63" y1="31" x2="71" y2="31" stroke="#9B4419" stroke-width="0.5"/><rect x="54" y="36" width="8" height="8" fill="rgb(240,105,45)" stroke="#9B4419" stroke-width="0.75"/><line x1="58" y1="36" x2="58" y2="44" stroke="#9B4419" stroke-width="0.5"/><line x1="54" y1="40" x2="62" y2="40" stroke="#9B4419" stroke-width="0.5"/><rect x="63" y="36" width="8" height="8" fill="rgb(235,103,44)" stroke="#9B4419" stroke-width="0.75"/><line x1="67" y1="36" x2="67" y2="44" stroke="#9B4419" stroke-width="0.5"/><line x1="63" y1="40" x2="71" y2="40" stroke="#9B4419" stroke-width="0.5"/><rect x="72" y="36" width="8" height="8" fill="rgb(231,100,43)" stroke="#9B4419" stroke-width="0.75"/><line x1="76" y1="36" x2="76" y2="44" stroke="#9B4419" stroke-width="0.5"/><line x1="72" y1="40" x2="80" y2="40" stroke="#9B4419" stroke-width="0.5"/><rect x="54" y="45" width="8" height="8" fill="rgb(229,99,42)" stroke="#9B4419" stroke-width="0.75"/><line x1="58" y1="45" x2="58" y2="53" stroke="#9B4419" stroke-width="0.5"/><line x1="54" y1="49" x2="62" y2="49" stroke="#9B4419" stroke-width="0.5"/><rect x="63" y="45" width="8" height="8" fill="rgb(224,97,41)" stroke="#9B4419" stroke-width="0.75"/><line x1="67" y1="45" x2="67" y2="53" stroke="#9B4419" stroke-width="0.5"/><line x1="63" y1="49" x2="71" y2="49" stroke="#9B4419" stroke-width="0.5"/><rect x="72" y="45" width="8" height="8" fill="rgb(239,104,44)" stroke="#9B4419" stroke-width="0.75"/><line x1="76" y1="45" x2="76" y2="53" stroke="#9B4419" stroke-width="0.5"/><line x1="72" y1="49" x2="80" y2="49" stroke="#9B4419" stroke-width="0.5"/><rect x="18" y="54" width="8" height="8" fill="rgb(235,103,44)" stroke="#9B4419" stroke-width="0.75"/><line x1="22" y1="54" x2="22" y2="62" stroke="#9B4419" stroke-width="0.5"/><line x1="18" y1="58" x2="26" y2="58" stroke="#9B4419" stroke-width="0.5"/><rect x="27" y="54" width="8" height="8" fill="rgb(231,100,43)" stroke="#9B4419" stroke-width="0.75"/><line x1="31" y1="54" x2="31" y2="62" stroke="#9B4419" stroke-width="0.5"/><line x1="27" y1="58" x2="35" y2="58" stroke="#9B4419" stroke-width="0.5"/><rect x="36" y="54" width="8" height="8" fill="rgb(226,98,42)" stroke="#9B4419" stroke-width="0.75"/><line x1="40" y1="54" x2="40" y2="62" stroke="#9B4419" stroke-width="0.5"/><line x1="36" y1="58" x2="44" y2="58" stroke="#9B4419" stroke-width="0.5"/><rect x="45" y="54" width="8" height="8" fill="rgb(241,105,45)" stroke="#9B4419" stroke-width="0.75"/><line x1="49" y1="54" x2="49" y2="62" stroke="#9B4419" stroke-width="0.5"/><line x1="45" y1="58" x2="53" y2="58" stroke="#9B4419" stroke-width="0.5"/><rect x="54" y="54" width="8" height="8" fill="rgb(237,103,44)" stroke="#9B4419" stroke-width="0.75"/><line x1="58" y1="54" x2="58" y2="62" stroke="#9B4419" stroke-width="0.5"/><line x1="54" y1="58" x2="62" y2="58" stroke="#9B4419" stroke-width="0.5"/><rect x="63" y="54" width="8" height="8" fill="rgb(232,101,43)" stroke="#9B4419" stroke-width="0.75"/><line x1="67" y1="54" x2="67" y2="62" stroke="#9B4419" stroke-width="0.5"/><line x1="63" y1="58" x2="71" y2="58" stroke="#9B4419" stroke-width="0.5"/><rect x="72" y="54" width="8" height="8" fill="rgb(227,99,42)" stroke="#9B4419" stroke-width="0.75"/><line x1="76" y1="54" x2="76" y2="62" stroke="#9B4419" stroke-width="0.5"/><line x1="72" y1="58" x2="80" y2="58" stroke="#9B4419" stroke-width="0.5"/><rect x="81" y="54" width="8" height="8" fill="rgb(223,97,41)" stroke="#9B4419" stroke-width="0.75"/><line x1="85" y1="54" x2="85" y2="62" stroke="#9B4419" stroke-width="0.5"/><line x1="81" y1="58" x2="89" y2="58" stroke="#9B4419" stroke-width="0.5"/><rect x="90" y="54" width="8" height="8" fill="rgb(238,104,44)" stroke="#9B4419" stroke-width="0.75"/><line x1="94" y1="54" x2="94" y2="62" stroke="#9B4419" stroke-width="0.5"/><line x1="90" y1="58" x2="98" y2="58" stroke="#9B4419" stroke-width="0.5"/><rect x="99" y="54" width="8" height="8" fill="rgb(233,102,43)" stroke="#9B4419" stroke-width="0.75"/><line x1="103" y1="54" x2="103" y2="62" stroke="#9B4419" stroke-width="0.5"/><line x1="99" y1="58" x2="107" y2="58" stroke="#9B4419" stroke-width="0.5"/><rect x="108" y="54" width="8" height="8" fill="rgb(229,99,42)" stroke="#9B4419" stroke-width="0.75"/><line x1="112" y1="54" x2="112" y2="62" stroke="#9B4419" stroke-width="0.5"/><line x1="108" y1="58" x2="116" y2="58" stroke="#9B4419" stroke-width="0.5"/><rect x="27" y="63" width="8" height="8" fill="rgb(239,104,44)" stroke="#9B4419" stroke-width="0.75"/><line x1="31" y1="63" x2="31" y2="71" stroke="#9B4419" stroke-width="0.5"/><line x1="27" y1="67" x2="35" y2="67" stroke="#9B4419" stroke-width="0.5"/><rect x="36" y="63" width="8" height="8" fill="rgb(234,102,43)" stroke="#9B4419" stroke-width="0.75"/><line x1="40" y1="63" x2="40" y2="71" stroke="#9B4419" stroke-width="0.5"/><line x1="36" y1="67" x2="44" y2="67" stroke="#9B4419" stroke-width="0.5"/><rect x="45" y="63" width="8" height="8" fill="rgb(230,100,43)" stroke="#9B4419" stroke-width="0.75"/><line x1="49" y1="63" x2="49" y2="71" stroke="#9B4419" stroke-width="0.5"/><line x1="45" y1="67" x2="53" y2="67" stroke="#9B4419" stroke-width="0.5"/><rect x="54" y="63" width="8" height="8" fill="rgb(225,98,42)" stroke="#9B4419" stroke-width="0.75"/><line x1="58" y1="63" x2="58" y2="71" stroke="#9B4419" stroke-width="0.5"/><line x1="54" y1="67" x2="62" y2="67" stroke="#9B4419" stroke-width="0.5"/><rect x="63" y="63" width="8" height="8" fill="rgb(240,105,45)" stroke="#9B4419" stroke-width="0.75"/><line x1="67" y1="63" x2="67" y2="71" stroke="#9B4419" stroke-width="0.5"/><line x1="63" y1="67" x2="71" y2="67" stroke="#9B4419" stroke-width="0.5"/><rect x="72" y="63" width="8" height="8" fill="rgb(235,103,44)" stroke="#9B4419" stroke-width="0.75"/><line x1="76" y1="63" x2="76" y2="71" stroke="#9B4419" stroke-width="0.5"/><line x1="72" y1="67" x2="80" y2="67" stroke="#9B4419" stroke-width="0.5"/><rect x="81" y="63" width="8" height="8" fill="rgb(231,100,43)" stroke="#9B4419" stroke-width="0.75"/><line x1="85" y1="63" x2="85" y2="71" stroke="#9B4419" stroke-width="0.5"/><line x1="81" y1="67" x2="89" y2="67" stroke="#9B4419" stroke-width="0.5"/><rect x="90" y="63" width="8" height="8" fill="rgb(226,98,42)" stroke="#9B4419" stroke-width="0.75"/><line x1="94" y1="63" x2="94" y2="71" stroke="#9B4419" stroke-width="0.5"/><line x1="90" y1="67" x2="98" y2="67" stroke="#9B4419" stroke-width="0.5"/><rect x="99" y="63" width="8" height="8" fill="rgb(241,105,45)" stroke="#9B4419" stroke-width="0.75"/><line x1="103" y1="63" x2="103" y2="71" stroke="#9B4419" stroke-width="0.5"/><line x1="99" y1="67" x2="107" y2="67" stroke="#9B4419" stroke-width="0.5"/><rect x="36" y="72" width="8" height="8" fill="rgb(223,97,41)" stroke="#9B4419" stroke-width="0.75"/><line x1="40" y1="72" x2="40" y2="80" stroke="#9B4419" stroke-width="0.5"/><line x1="36" y1="76" x2="44" y2="76" stroke="#9B4419" stroke-width="0.5"/><rect x="45" y="72" width="8" height="8" fill="rgb(238,104,44)" stroke="#9B4419" stroke-width="0.75"/><line x1="49" y1="72" x2="49" y2="80" stroke="#9B4419" stroke-width="0.5"/><line x1="45" y1="76" x2="53" y2="76" stroke="#9B4419" stroke-width="0.5"/><rect x="54" y="72" width="8" height="8" fill="rgb(233,102,43)" stroke="#9B4419" stroke-width="0.75"/><line x1="58" y1="72" x2="58" y2="80" stroke="#9B4419" stroke-width="0.5"/><line x1="54" y1="76" x2="62" y2="76" stroke="#9B4419" stroke-width="0.5"/><rect x="63" y="72" width="8" height="8" fill="rgb(229,99,42)" stroke="#9B4419" stroke-width="0.75"/><line x1="67" y1="72" x2="67" y2="80" stroke="#9B4419" stroke-width="0.5"/><line x1="63" y1="76" x2="71" y2="76" stroke="#9B4419" stroke-width="0.5"/><rect x="72" y="72" width="8" height="8" fill="rgb(224,97,41)" stroke="#9B4419" stroke-width="0.75"/><line x1="76" y1="72" x2="76" y2="80" stroke="#9B4419" stroke-width="0.5"/><line x1="72" y1="76" x2="80" y2="76" stroke="#9B4419" stroke-width="0.5"/><rect x="81" y="72" width="8" height="8" fill="rgb(239,104,44)" stroke="#9B4419" stroke-width="0.75"/><line x1="85" y1="72" x2="85" y2="80" stroke="#9B4419" stroke-width="0.5"/><line x1="81" y1="76" x2="89" y2="76" stroke="#9B4419" stroke-width="0.5"/><rect x="90" y="72" width="8" height="8" fill="rgb(234,102,43)" stroke="#9B4419" stroke-width="0.75"/><line x1="94" y1="72" x2="94" y2="80" stroke="#9B4419" stroke-width="0.5"/><line x1="90" y1="76" x2="98" y2="76" stroke="#9B4419" stroke-width="0.5"/><rect x="45" y="81" width="8" height="8" fill="rgb(226,98,42)" stroke="#9B4419" stroke-width="0.75"/><line x1="49" y1="81" x2="49" y2="89" stroke="#9B4419" stroke-width="0.5"/><line x1="45" y1="85" x2="53" y2="85" stroke="#9B4419" stroke-width="0.5"/><rect x="54" y="81" width="8" height="8" fill="rgb(241,105,45)" stroke="#9B4419" stroke-width="0.75"/><line x1="58" y1="81" x2="58" y2="89" stroke="#9B4419" stroke-width="0.5"/><line x1="54" y1="85" x2="62" y2="85" stroke="#9B4419" stroke-width="0.5"/><rect x="72" y="81" width="8" height="8" fill="rgb(232,101,43)" stroke="#9B4419" stroke-width="0.75"/><line x1="76" y1="81" x2="76" y2="89" stroke="#9B4419" stroke-width="0.5"/><line x1="72" y1="85" x2="80" y2="85" stroke="#9B4419" stroke-width="0.5"/><rect x="81" y="81" width="8" height="8" fill="rgb(227,99,42)" stroke="#9B4419" stroke-width="0.75"/><line x1="85" y1="81" x2="85" y2="89" stroke="#9B4419" stroke-width="0.5"/><line x1="81" y1="85" x2="89" y2="85" stroke="#9B4419" stroke-width="0.5"/><rect x="36" y="90" width="8" height="8" fill="rgb(239,104,44)" stroke="#9B4419" stroke-width="0.75"/><line x1="40" y1="90" x2="40" y2="98" stroke="#9B4419" stroke-width="0.5"/><line x1="36" y1="94" x2="44" y2="94" stroke="#9B4419" stroke-width="0.5"/><rect x="45" y="90" width="8" height="8" fill="rgb(234,102,43)" stroke="#9B4419" stroke-width="0.75"/><line x1="49" y1="90" x2="49" y2="98" stroke="#9B4419" stroke-width="0.5"/><line x1="45" y1="94" x2="53" y2="94" stroke="#9B4419" stroke-width="0.5"/><rect x="81" y="90" width="8" height="8" fill="rgb(235,103,44)" stroke="#9B4419" stroke-width="0.75"/><line x1="85" y1="90" x2="85" y2="98" stroke="#9B4419" stroke-width="0.5"/><line x1="81" y1="94" x2="89" y2="94" stroke="#9B4419" stroke-width="0.5"/><rect x="90" y="90" width="8" height="8" fill="rgb(231,100,43)" stroke="#9B4419" stroke-width="0.75"/><line x1="94" y1="90" x2="94" y2="98" stroke="#9B4419" stroke-width="0.5"/><line x1="90" y1="94" x2="98" y2="94" stroke="#9B4419" stroke-width="0.5"/><rect x="27" y="99" width="8" height="8" fill="rgb(232,101,43)" stroke="#9B4419" stroke-width="0.75"/><line x1="31" y1="99" x2="31" y2="107" stroke="#9B4419" stroke-width="0.5"/><line x1="27" y1="103" x2="35" y2="103" stroke="#9B4419" stroke-width="0.5"/><rect x="36" y="99" width="8" height="8" fill="rgb(227,99,42)" stroke="#9B4419" stroke-width="0.75"/><line x1="40" y1="99" x2="40" y2="107" stroke="#9B4419" stroke-width="0.5"/><line x1="36" y1="103" x2="44" y2="103" stroke="#9B4419" stroke-width="0.5"/><rect x="90" y="99" width="8" height="8" fill="rgb(239,104,44)" stroke="#9B4419" stroke-width="0.75"/><line x1="94" y1="99" x2="94" y2="107" stroke="#9B4419" stroke-width="0.5"/><line x1="90" y1="103" x2="98" y2="103" stroke="#9B4419" stroke-width="0.5"/><rect x="99" y="99" width="8" height="8" fill="rgb(234,102,43)" stroke="#9B4419" stroke-width="0.75"/><line x1="103" y1="99" x2="103" y2="107" stroke="#9B4419" stroke-width="0.5"/><line x1="99" y1="103" x2="107" y2="103" stroke="#9B4419" stroke-width="0.5"/><rect x="27" y="108" width="8" height="8" fill="rgb(240,105,45)" stroke="#9B4419" stroke-width="0.75"/><line x1="31" y1="108" x2="31" y2="116" stroke="#9B4419" stroke-width="0.5"/><line x1="27" y1="112" x2="35" y2="112" stroke="#9B4419" stroke-width="0.5"/><rect x="99" y="108" width="8" height="8" fill="rgb(223,97,41)" stroke="#9B4419" stroke-width="0.75"/><line x1="103" y1="108" x2="103" y2="116" stroke="#9B4419" stroke-width="0.5"/><line x1="99" y1="112" x2="107" y2="112" stroke="#9B4419" stroke-width="0.5"/><rect x="180" y="18" width="8" height="8" fill="rgb(239,104,44)" stroke="#9B4419" stroke-width="0.75"/><line x1="184" y1="18" x2="184" y2="26" stroke="#9B4419" stroke-width="0.5"/><line x1="180" y1="22" x2="188" y2="22" stroke="#9B4419" stroke-width="0.5"/><rect x="180" y="27" width="8" height="8" fill="rgb(227,99,42)" stroke="#9B4419" stroke-width="0.75"/><line x1="184" y1="27" x2="184" y2="35" stroke="#9B4419" stroke-width="0.5"/><line x1="180" y1="31" x2="188" y2="31" stroke="#9B4419" stroke-width="0.5"/><rect x="171" y="36" width="8" height="8" fill="rgb(240,105,45)" stroke="#9B4419" stroke-width="0.75"/><line x1="175" y1="36" x2="175" y2="44" stroke="#9B4419" stroke-width="0.5"/><line x1="171" y1="40" x2="179" y2="40" stroke="#9B4419" stroke-width="0.5"/><rect x="180" y="36" width="8" height="8" fill="rgb(235,103,44)" stroke="#9B4419" stroke-width="0.75"/><line x1="184" y1="36" x2="184" y2="44" stroke="#9B4419" stroke-width="0.5"/><line x1="180" y1="40" x2="188" y2="40" stroke="#9B4419" stroke-width="0.5"/><rect x="189" y="36" width="8" height="8" fill="rgb(231,100,43)" stroke="#9B4419" stroke-width="0.75"/><line x1="193" y1="36" x2="193" y2="44" stroke="#9B4419" stroke-width="0.5"/><line x1="189" y1="40" x2="197" y2="40" stroke="#9B4419" stroke-width="0.5"/><rect x="171" y="45" width="8" height="8" fill="rgb(229,99,42)" stroke="#9B4419" stroke-width="0.75"/><line x1="175" y1="45" x2="175" y2="53" stroke="#9B4419" stroke-width="0.5"/><line x1="171" y1="49" x2="179" y2="49" stroke="#9B4419" stroke-width="0.5"/><rect x="180" y="45" width="8" height="8" fill="rgb(224,97,41)" stroke="#9B4419" stroke-width="0.75"/><line x1="184" y1="45" x2="184" y2="53" stroke="#9B4419" stroke-width="0.5"/><line x1="180" y1="49" x2="188" y2="49" stroke="#9B4419" stroke-width="0.5"/><rect x="189" y="45" width="8" height="8" fill="rgb(239,104,44)" stroke="#9B4419" stroke-width="0.75"/><line x1="193" y1="45" x2="193" y2="53" stroke="#9B4419" stroke-width="0.5"/><line x1="189" y1="49" x2="197" y2="49" stroke="#9B4419" stroke-width="0.5"/><rect x="135" y="54" width="8" height="8" fill="rgb(235,103,44)" stroke="#9B4419" stroke-width="0.75"/><line x1="139" y1="54" x2="139" y2="62" stroke="#9B4419" stroke-width="0.5"/><line x1="135" y1="58" x2="143" y2="58" stroke="#9B4419" stroke-width="0.5"/><rect x="144" y="54" width="8" height="8" fill="rgb(231,100,43)" stroke="#9B4419" stroke-width="0.75"/><line x1="148" y1="54" x2="148" y2="62" stroke="#9B4419" stroke-width="0.5"/><line x1="144" y1="58" x2="152" y2="58" stroke="#9B4419" stroke-width="0.5"/><rect x="153" y="54" width="8" height="8" fill="rgb(226,98,42)" stroke="#9B4419" stroke-width="0.75"/><line x1="157" y1="54" x2="157" y2="62" stroke="#9B4419" stroke-width="0.5"/><line x1="153" y1="58" x2="161" y2="58" stroke="#9B4419" stroke-width="0.5"/><rect x="162" y="54" width="8" height="8" fill="rgb(241,105,45)" stroke="#9B4419" stroke-width="0.75"/><line x1="166" y1="54" x2="166" y2="62" stroke="#9B4419" stroke-width="0.5"/><line x1="162" y1="58" x2="170" y2="58" stroke="#9B4419" stroke-width="0.5"/><rect x="171" y="54" width="8" height="8" fill="rgb(237,103,44)" stroke="#9B4419" stroke-width="0.75"/><line x1="175" y1="54" x2="175" y2="62" stroke="#9B4419" stroke-width="0.5"/><line x1="171" y1="58" x2="179" y2="58" stroke="#9B4419" stroke-width="0.5"/><rect x="180" y="54" width="8" height="8" fill="rgb(232,101,43)" stroke="#9B4419" stroke-width="0.75"/><line x1="184" y1="54" x2="184" y2="62" stroke="#9B4419" stroke-width="0.5"/><line x1="180" y1="58" x2="188" y2="58" stroke="#9B4419" stroke-width="0.5"/><rect x="189" y="54" width="8" height="8" fill="rgb(227,99,42)" stroke="#9B4419" stroke-width="0.75"/><line x1="193" y1="54" x2="193" y2="62" stroke="#9B4419" stroke-width="0.5"/><line x1="189" y1="58" x2="197" y2="58" stroke="#9B4419" stroke-width="0.5"/><rect x="198" y="54" width="8" height="8" fill="rgb(223,97,41)" stroke="#9B4419" stroke-width="0.75"/><line x1="202" y1="54" x2="202" y2="62" stroke="#9B4419" stroke-width="0.5"/><line x1="198" y1="58" x2="206" y2="58" stroke="#9B4419" stroke-width="0.5"/><rect x="207" y="54" width="8" height="8" fill="rgb(238,104,44)" stroke="#9B4419" stroke-width="0.75"/><line x1="211" y1="54" x2="211" y2="62" stroke="#9B4419" stroke-width="0.5"/><line x1="207" y1="58" x2="215" y2="58" stroke="#9B4419" stroke-width="0.5"/><rect x="216" y="54" width="8" height="8" fill="rgb(233,102,43)" stroke="#9B4419" stroke-width="0.75"/><line x1="220" y1="54" x2="220" y2="62" stroke="#9B4419" stroke-width="0.5"/><line x1="216" y1="58" x2="224" y2="58" stroke="#9B4419" stroke-width="0.5"/><rect x="225" y="54" width="8" height="8" fill="rgb(229,99,42)" stroke="#9B4419" stroke-width="0.75"/><line x1="229" y1="54" x2="229" y2="62" stroke="#9B4419" stroke-width="0.5"/><line x1="225" y1="58" x2="233" y2="58" stroke="#9B4419" stroke-width="0.5"/><rect x="144" y="63" width="8" height="8" fill="rgb(239,104,44)" stroke="#9B4419" stroke-width="0.75"/><line x1="148" y1="63" x2="148" y2="71" stroke="#9B4419" stroke-width="0.5"/><line x1="144" y1="67" x2="152" y2="67" stroke="#9B4419" stroke-width="0.5"/><rect x="153" y="63" width="8" height="8" fill="rgb(234,102,43)" stroke="#9B4419" stroke-width="0.75"/><line x1="157" y1="63" x2="157" y2="71" stroke="#9B4419" stroke-width="0.5"/><line x1="153" y1="67" x2="161" y2="67" stroke="#9B4419" stroke-width="0.5"/><rect x="162" y="63" width="8" height="8" fill="rgb(230,100,43)" stroke="#9B4419" stroke-width="0.75"/><line x1="166" y1="63" x2="166" y2="71" stroke="#9B4419" stroke-width="0.5"/><line x1="162" y1="67" x2="170" y2="67" stroke="#9B4419" stroke-width="0.5"/><rect x="171" y="63" width="8" height="8" fill="rgb(225,98,42)" stroke="#9B4419" stroke-width="0.75"/><line x1="175" y1="63" x2="175" y2="71" stroke="#9B4419" stroke-width="0.5"/><line x1="171" y1="67" x2="179" y2="67" stroke="#9B4419" stroke-width="0.5"/><rect x="180" y="63" width="8" height="8" fill="rgb(240,105,45)" stroke="#9B4419" stroke-width="0.75"/><line x1="184" y1="63" x2="184" y2="71" stroke="#9B4419" stroke-width="0.5"/><line x1="180" y1="67" x2="188" y2="67" stroke="#9B4419" stroke-width="0.5"/><rect x="189" y="63" width="8" height="8" fill="rgb(235,103,44)" stroke="#9B4419" stroke-width="0.75"/><line x1="193" y1="63" x2="193" y2="71" stroke="#9B4419" stroke-width="0.5"/><line x1="189" y1="67" x2="197" y2="67" stroke="#9B4419" stroke-width="0.5"/><rect x="198" y="63" width="8" height="8" fill="rgb(231,100,43)" stroke="#9B4419" stroke-width="0.75"/><line x1="202" y1="63" x2="202" y2="71" stroke="#9B4419" stroke-width="0.5"/><line x1="198" y1="67" x2="206" y2="67" stroke="#9B4419" stroke-width="0.5"/><rect x="207" y="63" width="8" height="8" fill="rgb(226,98,42)" stroke="#9B4419" stroke-width="0.75"/><line x1="211" y1="63" x2="211" y2="71" stroke="#9B4419" stroke-width="0.5"/><line x1="207" y1="67" x2="215" y2="67" stroke="#9B4419" stroke-width="0.5"/><rect x="216" y="63" width="8" height="8" fill="rgb(241,105,45)" stroke="#9B4419" stroke-width="0.75"/><line x1="220" y1="63" x2="220" y2="71" stroke="#9B4419" stroke-width="0.5"/><line x1="216" y1="67" x2="224" y2="67" stroke="#9B4419" stroke-width="0.5"/><rect x="153" y="72" width="8" height="8" fill="rgb(223,97,41)" stroke="#9B4419" stroke-width="0.75"/><line x1="157" y1="72" x2="157" y2="80" stroke="#9B4419" stroke-width="0.5"/><line x1="153" y1="76" x2="161" y2="76" stroke="#9B4419" stroke-width="0.5"/><rect x="162" y="72" width="8" height="8" fill="rgb(238,104,44)" stroke="#9B4419" stroke-width="0.75"/><line x1="166" y1="72" x2="166" y2="80" stroke="#9B4419" stroke-width="0.5"/><line x1="162" y1="76" x2="170" y2="76" stroke="#9B4419" stroke-width="0.5"/><rect x="171" y="72" width="8" height="8" fill="rgb(233,102,43)" stroke="#9B4419" stroke-width="0.75"/><line x1="175" y1="72" x2="175" y2="80" stroke="#9B4419" stroke-width="0.5"/><line x1="171" y1="76" x2="179" y2="76" stroke="#9B4419" stroke-width="0.5"/><rect x="180" y="72" width="8" height="8" fill="rgb(229,99,42)" stroke="#9B4419" stroke-width="0.75"/><line x1="184" y1="72" x2="184" y2="80" stroke="#9B4419" stroke-width="0.5"/><line x1="180" y1="76" x2="188" y2="76" stroke="#9B4419" stroke-width="0.5"/><rect x="189" y="72" width="8" height="8" fill="rgb(224,97,41)" stroke="#9B4419" stroke-width="0.75"/><line x1="193" y1="72" x2="193" y2="80" stroke="#9B4419" stroke-width="0.5"/><line x1="189" y1="76" x2="197" y2="76" stroke="#9B4419" stroke-width="0.5"/><rect x="198" y="72" width="8" height="8" fill="rgb(239,104,44)" stroke="#9B4419" stroke-width="0.75"/><line x1="202" y1="72" x2="202" y2="80" stroke="#9B4419" stroke-width="0.5"/><line x1="198" y1="76" x2="206" y2="76" stroke="#9B4419" stroke-width="0.5"/><rect x="207" y="72" width="8" height="8" fill="rgb(234,102,43)" stroke="#9B4419" stroke-width="0.75"/><line x1="211" y1="72" x2="211" y2="80" stroke="#9B4419" stroke-width="0.5"/><line x1="207" y1="76" x2="215" y2="76" stroke="#9B4419" stroke-width="0.5"/><rect x="162" y="81" width="8" height="8" fill="rgb(226,98,42)" stroke="#9B4419" stroke-width="0.75"/><line x1="166" y1="81" x2="166" y2="89" stroke="#9B4419" stroke-width="0.5"/><line x1="162" y1="85" x2="170" y2="85" stroke="#9B4419" stroke-width="0.5"/><rect x="171" y="81" width="8" height="8" fill="rgb(241,105,45)" stroke="#9B4419" stroke-width="0.75"/><line x1="175" y1="81" x2="175" y2="89" stroke="#9B4419" stroke-width="0.5"/><line x1="171" y1="85" x2="179" y2="85" stroke="#9B4419" stroke-width="0.5"/><rect x="189" y="81" width="8" height="8" fill="rgb(232,101,43)" stroke="#9B4419" stroke-width="0.75"/><line x1="193" y1="81" x2="193" y2="89" stroke="#9B4419" stroke-width="0.5"/><line x1="189" y1="85" x2="197" y2="85" stroke="#9B4419" stroke-width="0.5"/><rect x="198" y="81" width="8" height="8" fill="rgb(227,99,42)" stroke="#9B4419" stroke-width="0.75"/><line x1="202" y1="81" x2="202" y2="89" stroke="#9B4419" stroke-width="0.5"/><line x1="198" y1="85" x2="206" y2="85" stroke="#9B4419" stroke-width="0.5"/><rect x="153" y="90" width="8" height="8" fill="rgb(239,104,44)" stroke="#9B4419" stroke-width="0.75"/><line x1="157" y1="90" x2="157" y2="98" stroke="#9B4419" stroke-width="0.5"/><line x1="153" y1="94" x2="161" y2="94" stroke="#9B4419" stroke-width="0.5"/><rect x="162" y="90" width="8" height="8" fill="rgb(234,102,43)" stroke="#9B4419" stroke-width="0.75"/><line x1="166" y1="90" x2="166" y2="98" stroke="#9B4419" stroke-width="0.5"/><line x1="162" y1="94" x2="170" y2="94" stroke="#9B4419" stroke-width="0.5"/><rect x="198" y="90" width="8" height="8" fill="rgb(235,103,44)" stroke="#9B4419" stroke-width="0.75"/><line x1="202" y1="90" x2="202" y2="98" stroke="#9B4419" stroke-width="0.5"/><line x1="198" y1="94" x2="206" y2="94" stroke="#9B4419" stroke-width="0.5"/><rect x="207" y="90" width="8" height="8" fill="rgb(231,100,43)" stroke="#9B4419" stroke-width="0.75"/><line x1="211" y1="90" x2="211" y2="98" stroke="#9B4419" stroke-width="0.5"/><line x1="207" y1="94" x2="215" y2="94" stroke="#9B4419" stroke-width="0.5"/><rect x="144" y="99" width="8" height="8" fill="rgb(232,101,43)" stroke="#9B4419" stroke-width="0.75"/><line x1="148" y1="99" x2="148" y2="107" stroke="#9B4419" stroke-width="0.5"/><line x1="144" y1="103" x2="152" y2="103" stroke="#9B4419" stroke-width="0.5"/><rect x="153" y="99" width="8" height="8" fill="rgb(227,99,42)" stroke="#9B4419" stroke-width="0.75"/><line x1="157" y1="99" x2="157" y2="107" stroke="#9B4419" stroke-width="0.5"/><line x1="153" y1="103" x2="161" y2="103" stroke="#9B4419" stroke-width="0.5"/><rect x="207" y="99" width="8" height="8" fill="rgb(239,104,44)" stroke="#9B4419" stroke-width="0.75"/><line x1="211" y1="99" x2="211" y2="107" stroke="#9B4419" stroke-width="0.5"/><line x1="207" y1="103" x2="215" y2="103" stroke="#9B4419" stroke-width="0.5"/><rect x="216" y="99" width="8" height="8" fill="rgb(234,102,43)" stroke="#9B4419" stroke-width="0.75"/><line x1="220" y1="99" x2="220" y2="107" stroke="#9B4419" stroke-width="0.5"/><line x1="216" y1="103" x2="224" y2="103" stroke="#9B4419" stroke-width="0.5"/><rect x="144" y="108" width="8" height="8" fill="rgb(240,105,45)" stroke="#9B4419" stroke-width="0.75"/><line x1="148" y1="108" x2="148" y2="116" stroke="#9B4419" stroke-width="0.5"/><line x1="144" y1="112" x2="152" y2="112" stroke="#9B4419" stroke-width="0.5"/><rect x="216" y="108" width="8" height="8" fill="rgb(223,97,41)" stroke="#9B4419" stroke-width="0.75"/><line x1="220" y1="108" x2="220" y2="116" stroke="#9B4419" stroke-width="0.5"/><line x1="216" y1="112" x2="224" y2="112" stroke="#9B4419" stroke-width="0.5"/><rect x="121.5" y="135" width="8" height="8" fill="rgb(239,104,44)" stroke="#9B4419" stroke-width="0.75"/><line x1="125.5" y1="135" x2="125.5" y2="143" stroke="#9B4419" stroke-width="0.5"/><line x1="121.5" y1="139" x2="129.5" y2="139" stroke="#9B4419" stroke-width="0.5"/><rect x="121.5" y="144" width="8" height="8" fill="rgb(227,99,42)" stroke="#9B4419" stroke-width="0.75"/><line x1="125.5" y1="144" x2="125.5" y2="152" stroke="#9B4419" stroke-width="0.5"/><line x1="121.5" y1="148" x2="129.5" y2="148" stroke="#9B4419" stroke-width="0.5"/><rect x="112.5" y="153" width="8" height="8" fill="rgb(240,105,45)" stroke="#9B4419" stroke-width="0.75"/><line x1="116.5" y1="153" x2="116.5" y2="161" stroke="#9B4419" stroke-width="0.5"/><line x1="112.5" y1="157" x2="120.5" y2="157" stroke="#9B4419" stroke-width="0.5"/><rect x="121.5" y="153" width="8" height="8" fill="rgb(235,103,44)" stroke="#9B4419" stroke-width="0.75"/><line x1="125.5" y1="153" x2="125.5" y2="161" stroke="#9B4419" stroke-width="0.5"/><line x1="121.5" y1="157" x2="129.5" y2="157" stroke="#9B4419" stroke-width="0.5"/><rect x="130.5" y="153" width="8" height="8" fill="rgb(231,100,43)" stroke="#9B4419" stroke-width="0.75"/><line x1="134.5" y1="153" x2="134.5" y2="161" stroke="#9B4419" stroke-width="0.5"/><line x1="130.5" y1="157" x2="138.5" y2="157" stroke="#9B4419" stroke-width="0.5"/><rect x="112.5" y="162" width="8" height="8" fill="rgb(229,99,42)" stroke="#9B4419" stroke-width="0.75"/><line x1="116.5" y1="162" x2="116.5" y2="170" stroke="#9B4419" stroke-width="0.5"/><line x1="112.5" y1="166" x2="120.5" y2="166" stroke="#9B4419" stroke-width="0.5"/><rect x="121.5" y="162" width="8" height="8" fill="rgb(224,97,41)" stroke="#9B4419" stroke-width="0.75"/><line x1="125.5" y1="162" x2="125.5" y2="170" stroke="#9B4419" stroke-width="0.5"/><line x1="121.5" y1="166" x2="129.5" y2="166" stroke="#9B4419" stroke-width="0.5"/><rect x="130.5" y="162" width="8" height="8" fill="rgb(239,104,44)" stroke="#9B4419" stroke-width="0.75"/><line x1="134.5" y1="162" x2="134.5" y2="170" stroke="#9B4419" stroke-width="0.5"/><line x1="130.5" y1="166" x2="138.5" y2="166" stroke="#9B4419" stroke-width="0.5"/><rect x="76.5" y="171" width="8" height="8" fill="rgb(235,103,44)" stroke="#9B4419" stroke-width="0.75"/><line x1="80.5" y1="171" x2="80.5" y2="179" stroke="#9B4419" stroke-width="0.5"/><line x1="76.5" y1="175" x2="84.5" y2="175" stroke="#9B4419" stroke-width="0.5"/><rect x="85.5" y="171" width="8" height="8" fill="rgb(231,100,43)" stroke="#9B4419" stroke-width="0.75"/><line x1="89.5" y1="171" x2="89.5" y2="179" stroke="#9B4419" stroke-width="0.5"/><line x1="85.5" y1="175" x2="93.5" y2="175" stroke="#9B4419" stroke-width="0.5"/><rect x="94.5" y="171" width="8" height="8" fill="rgb(226,98,42)" stroke="#9B4419" stroke-width="0.75"/><line x1="98.5" y1="171" x2="98.5" y2="179" stroke="#9B4419" stroke-width="0.5"/><line x1="94.5" y1="175" x2="102.5" y2="175" stroke="#9B4419" stroke-width="0.5"/><rect x="103.5" y="171" width="8" height="8" fill="rgb(241,105,45)" stroke="#9B4419" stroke-width="0.75"/><line x1="107.5" y1="171" x2="107.5" y2="179" stroke="#9B4419" stroke-width="0.5"/><line x1="103.5" y1="175" x2="111.5" y2="175" stroke="#9B4419" stroke-width="0.5"/><rect x="112.5" y="171" width="8" height="8" fill="rgb(237,103,44)" stroke="#9B4419" stroke-width="0.75"/><line x1="116.5" y1="171" x2="116.5" y2="179" stroke="#9B4419" stroke-width="0.5"/><line x1="112.5" y1="175" x2="120.5" y2="175" stroke="#9B4419" stroke-width="0.5"/><rect x="121.5" y="171" width="8" height="8" fill="rgb(232,101,43)" stroke="#9B4419" stroke-width="0.75"/><line x1="125.5" y1="171" x2="125.5" y2="179" stroke="#9B4419" stroke-width="0.5"/><line x1="121.5" y1="175" x2="129.5" y2="175" stroke="#9B4419" stroke-width="0.5"/><rect x="130.5" y="171" width="8" height="8" fill="rgb(227,99,42)" stroke="#9B4419" stroke-width="0.75"/><line x1="134.5" y1="171" x2="134.5" y2="179" stroke="#9B4419" stroke-width="0.5"/><line x1="130.5" y1="175" x2="138.5" y2="175" stroke="#9B4419" stroke-width="0.5"/><rect x="139.5" y="171" width="8" height="8" fill="rgb(223,97,41)" stroke="#9B4419" stroke-width="0.75"/><line x1="143.5" y1="171" x2="143.5" y2="179" stroke="#9B4419" stroke-width="0.5"/><line x1="139.5" y1="175" x2="147.5" y2="175" stroke="#9B4419" stroke-width="0.5"/><rect x="148.5" y="171" width="8" height="8" fill="rgb(238,104,44)" stroke="#9B4419" stroke-width="0.75"/><line x1="152.5" y1="171" x2="152.5" y2="179" stroke="#9B4419" stroke-width="0.5"/><line x1="148.5" y1="175" x2="156.5" y2="175" stroke="#9B4419" stroke-width="0.5"/><rect x="157.5" y="171" width="8" height="8" fill="rgb(233,102,43)" stroke="#9B4419" stroke-width="0.75"/><line x1="161.5" y1="171" x2="161.5" y2="179" stroke="#9B4419" stroke-width="0.5"/><line x1="157.5" y1="175" x2="165.5" y2="175" stroke="#9B4419" stroke-width="0.5"/><rect x="166.5" y="171" width="8" height="8" fill="rgb(229,99,42)" stroke="#9B4419" stroke-width="0.75"/><line x1="170.5" y1="171" x2="170.5" y2="179" stroke="#9B4419" stroke-width="0.5"/><line x1="166.5" y1="175" x2="174.5" y2="175" stroke="#9B4419" stroke-width="0.5"/><rect x="85.5" y="180" width="8" height="8" fill="rgb(239,104,44)" stroke="#9B4419" stroke-width="0.75"/><line x1="89.5" y1="180" x2="89.5" y2="188" stroke="#9B4419" stroke-width="0.5"/><line x1="85.5" y1="184" x2="93.5" y2="184" stroke="#9B4419" stroke-width="0.5"/><rect x="94.5" y="180" width="8" height="8" fill="rgb(234,102,43)" stroke="#9B4419" stroke-width="0.75"/><line x1="98.5" y1="180" x2="98.5" y2="188" stroke="#9B4419" stroke-width="0.5"/><line x1="94.5" y1="184" x2="102.5" y2="184" stroke="#9B4419" stroke-width="0.5"/><rect x="103.5" y="180" width="8" height="8" fill="rgb(230,100,43)" stroke="#9B4419" stroke-width="0.75"/><line x1="107.5" y1="180" x2="107.5" y2="188" stroke="#9B4419" stroke-width="0.5"/><line x1="103.5" y1="184" x2="111.5" y2="184" stroke="#9B4419" stroke-width="0.5"/><rect x="112.5" y="180" width="8" height="8" fill="rgb(225,98,42)" stroke="#9B4419" stroke-width="0.75"/><line x1="116.5" y1="180" x2="116.5" y2="188" stroke="#9B4419" stroke-width="0.5"/><line x1="112.5" y1="184" x2="120.5" y2="184" stroke="#9B4419" stroke-width="0.5"/><rect x="121.5" y="180" width="8" height="8" fill="rgb(240,105,45)" stroke="#9B4419" stroke-width="0.75"/><line x1="125.5" y1="180" x2="125.5" y2="188" stroke="#9B4419" stroke-width="0.5"/><line x1="121.5" y1="184" x2="129.5" y2="184" stroke="#9B4419" stroke-width="0.5"/><rect x="130.5" y="180" width="8" height="8" fill="rgb(235,103,44)" stroke="#9B4419" stroke-width="0.75"/><line x1="134.5" y1="180" x2="134.5" y2="188" stroke="#9B4419" stroke-width="0.5"/><line x1="130.5" y1="184" x2="138.5" y2="184" stroke="#9B4419" stroke-width="0.5"/><rect x="139.5" y="180" width="8" height="8" fill="rgb(231,100,43)" stroke="#9B4419" stroke-width="0.75"/><line x1="143.5" y1="180" x2="143.5" y2="188" stroke="#9B4419" stroke-width="0.5"/><line x1="139.5" y1="184" x2="147.5" y2="184" stroke="#9B4419" stroke-width="0.5"/><rect x="148.5" y="180" width="8" height="8" fill="rgb(226,98,42)" stroke="#9B4419" stroke-width="0.75"/><line x1="152.5" y1="180" x2="152.5" y2="188" stroke="#9B4419" stroke-width="0.5"/><line x1="148.5" y1="184" x2="156.5" y2="184" stroke="#9B4419" stroke-width="0.5"/><rect x="157.5" y="180" width="8" height="8" fill="rgb(241,105,45)" stroke="#9B4419" stroke-width="0.75"/><line x1="161.5" y1="180" x2="161.5" y2="188" stroke="#9B4419" stroke-width="0.5"/><line x1="157.5" y1="184" x2="165.5" y2="184" stroke="#9B4419" stroke-width="0.5"/><rect x="94.5" y="189" width="8" height="8" fill="rgb(223,97,41)" stroke="#9B4419" stroke-width="0.75"/><line x1="98.5" y1="189" x2="98.5" y2="197" stroke="#9B4419" stroke-width="0.5"/><line x1="94.5" y1="193" x2="102.5" y2="193" stroke="#9B4419" stroke-width="0.5"/><rect x="103.5" y="189" width="8" height="8" fill="rgb(238,104,44)" stroke="#9B4419" stroke-width="0.75"/><line x1="107.5" y1="189" x2="107.5" y2="197" stroke="#9B4419" stroke-width="0.5"/><line x1="103.5" y1="193" x2="111.5" y2="193" stroke="#9B4419" stroke-width="0.5"/><rect x="112.5" y="189" width="8" height="8" fill="rgb(233,102,43)" stroke="#9B4419" stroke-width="0.75"/><line x1="116.5" y1="189" x2="116.5" y2="197" stroke="#9B4419" stroke-width="0.5"/><line x1="112.5" y1="193" x2="120.5" y2="193" stroke="#9B4419" stroke-width="0.5"/><rect x="121.5" y="189" width="8" height="8" fill="rgb(229,99,42)" stroke="#9B4419" stroke-width="0.75"/><line x1="125.5" y1="189" x2="125.5" y2="197" stroke="#9B4419" stroke-width="0.5"/><line x1="121.5" y1="193" x2="129.5" y2="193" stroke="#9B4419" stroke-width="0.5"/><rect x="130.5" y="189" width="8" height="8" fill="rgb(224,97,41)" stroke="#9B4419" stroke-width="0.75"/><line x1="134.5" y1="189" x2="134.5" y2="197" stroke="#9B4419" stroke-width="0.5"/><line x1="130.5" y1="193" x2="138.5" y2="193" stroke="#9B4419" stroke-width="0.5"/><rect x="139.5" y="189" width="8" height="8" fill="rgb(239,104,44)" stroke="#9B4419" stroke-width="0.75"/><line x1="143.5" y1="189" x2="143.5" y2="197" stroke="#9B4419" stroke-width="0.5"/><line x1="139.5" y1="193" x2="147.5" y2="193" stroke="#9B4419" stroke-width="0.5"/><rect x="148.5" y="189" width="8" height="8" fill="rgb(234,102,43)" stroke="#9B4419" stroke-width="0.75"/><line x1="152.5" y1="189" x2="152.5" y2="197" stroke="#9B4419" stroke-width="0.5"/><line x1="148.5" y1="193" x2="156.5" y2="193" stroke="#9B4419" stroke-width="0.5"/><rect x="103.5" y="198" width="8" height="8" fill="rgb(226,98,42)" stroke="#9B4419" stroke-width="0.75"/><line x1="107.5" y1="198" x2="107.5" y2="206" stroke="#9B4419" stroke-width="0.5"/><line x1="103.5" y1="202" x2="111.5" y2="202" stroke="#9B4419" stroke-width="0.5"/><rect x="112.5" y="198" width="8" height="8" fill="rgb(241,105,45)" stroke="#9B4419" stroke-width="0.75"/><line x1="116.5" y1="198" x2="116.5" y2="206" stroke="#9B4419" stroke-width="0.5"/><line x1="112.5" y1="202" x2="120.5" y2="202" stroke="#9B4419" stroke-width="0.5"/><rect x="130.5" y="198" width="8" height="8" fill="rgb(232,101,43)" stroke="#9B4419" stroke-width="0.75"/><line x1="134.5" y1="198" x2="134.5" y2="206" stroke="#9B4419" stroke-width="0.5"/><line x1="130.5" y1="202" x2="138.5" y2="202" stroke="#9B4419" stroke-width="0.5"/><rect x="139.5" y="198" width="8" height="8" fill="rgb(227,99,42)" stroke="#9B4419" stroke-width="0.75"/><line x1="143.5" y1="198" x2="143.5" y2="206" stroke="#9B4419" stroke-width="0.5"/><line x1="139.5" y1="202" x2="147.5" y2="202" stroke="#9B4419" stroke-width="0.5"/><rect x="94.5" y="207" width="8" height="8" fill="rgb(239,104,44)" stroke="#9B4419" stroke-width="0.75"/><line x1="98.5" y1="207" x2="98.5" y2="215" stroke="#9B4419" stroke-width="0.5"/><line x1="94.5" y1="211" x2="102.5" y2="211" stroke="#9B4419" stroke-width="0.5"/><rect x="103.5" y="207" width="8" height="8" fill="rgb(234,102,43)" stroke="#9B4419" stroke-width="0.75"/><line x1="107.5" y1="207" x2="107.5" y2="215" stroke="#9B4419" stroke-width="0.5"/><line x1="103.5" y1="211" x2="111.5" y2="211" stroke="#9B4419" stroke-width="0.5"/><rect x="139.5" y="207" width="8" height="8" fill="rgb(235,103,44)" stroke="#9B4419" stroke-width="0.75"/><line x1="143.5" y1="207" x2="143.5" y2="215" stroke="#9B4419" stroke-width="0.5"/><line x1="139.5" y1="211" x2="147.5" y2="211" stroke="#9B4419" stroke-width="0.5"/><rect x="148.5" y="207" width="8" height="8" fill="rgb(231,100,43)" stroke="#9B4419" stroke-width="0.75"/><line x1="152.5" y1="207" x2="152.5" y2="215" stroke="#9B4419" stroke-width="0.5"/><line x1="148.5" y1="211" x2="156.5" y2="211" stroke="#9B4419" stroke-width="0.5"/><rect x="85.5" y="216" width="8" height="8" fill="rgb(232,101,43)" stroke="#9B4419" stroke-width="0.75"/><line x1="89.5" y1="216" x2="89.5" y2="224" stroke="#9B4419" stroke-width="0.5"/><line x1="85.5" y1="220" x2="93.5" y2="220" stroke="#9B4419" stroke-width="0.5"/><rect x="94.5" y="216" width="8" height="8" fill="rgb(227,99,42)" stroke="#9B4419" stroke-width="0.75"/><line x1="98.5" y1="216" x2="98.5" y2="224" stroke="#9B4419" stroke-width="0.5"/><line x1="94.5" y1="220" x2="102.5" y2="220" stroke="#9B4419" stroke-width="0.5"/><rect x="148.5" y="216" width="8" height="8" fill="rgb(239,104,44)" stroke="#9B4419" stroke-width="0.75"/><line x1="152.5" y1="216" x2="152.5" y2="224" stroke="#9B4419" stroke-width="0.5"/><line x1="148.5" y1="220" x2="156.5" y2="220" stroke="#9B4419" stroke-width="0.5"/><rect x="157.5" y="216" width="8" height="8" fill="rgb(234,102,43)" stroke="#9B4419" stroke-width="0.75"/><line x1="161.5" y1="216" x2="161.5" y2="224" stroke="#9B4419" stroke-width="0.5"/><line x1="157.5" y1="220" x2="165.5" y2="220" stroke="#9B4419" stroke-width="0.5"/><rect x="85.5" y="225" width="8" height="8" fill="rgb(240,105,45)" stroke="#9B4419" stroke-width="0.75"/><line x1="89.5" y1="225" x2="89.5" y2="233" stroke="#9B4419" stroke-width="0.5"/><line x1="85.5" y1="229" x2="93.5" y2="229" stroke="#9B4419" stroke-width="0.5"/><rect x="157.5" y="225" width="8" height="8" fill="rgb(223,97,41)" stroke="#9B4419" stroke-width="0.75"/><line x1="161.5" y1="225" x2="161.5" y2="233" stroke="#9B4419" stroke-width="0.5"/><line x1="157.5" y1="229" x2="165.5" y2="229" stroke="#9B4419" stroke-width="0.5"/>
</svg>
