<svg width="1200" height="630" viewBox="0 0 1200 630" fill="none" xmlns="http://www.w3.org/2000/svg">
  <rect width="1200" height="630" fill="#131110"/>
  <rect x="48" y="48" width="1104" height="534" rx="4" fill="#1A1610" stroke="#2A2520" stroke-width="1"/>

  <!-- Logo icon -->
  <rect x="80" y="100" width="64" height="64" rx="4" fill="#E8652B"/>
  <polygon points="96.5,106.5 97.4,109.3 100.4,109.3 97.98,111 98.91,113.8 96.5,112.1 94.09,113.8 95.02,111 92.6,109.3 95.6,109.3" fill="#0A0A0A"/>
  <polygon points="91,116 91.9,118.8 94.9,118.8 92.48,120.5 93.41,123.3 91,121.6 88.59,123.3 89.52,120.5 87.1,118.8 90.1,118.8" fill="#0A0A0A"/>
  <polygon points="102,116 102.9,118.8 105.9,118.8 103.48,120.5 104.41,123.3 102,121.6 99.59,123.3 100.52,120.5 98.1,118.8 101.1,118.8" fill="#0A0A0A"/>

  <!-- Title -->
  <text x="160" y="128" font-family="system-ui, -apple-system, sans-serif" font-size="38" font-weight="800" fill="#E8DCC8" letter-spacing="-0.5">NASHVILLE</text>
  <text x="160" y="160" font-family="system-ui, -apple-system, sans-serif" font-size="22" font-weight="600" fill="#E8652B" letter-spacing="4">AUTOMATION COMPANY</text>

  <!-- Tagline -->
  <text x="80" y="290" font-family="system-ui, -apple-system, sans-serif" font-size="60" font-weight="900" fill="#E8DCC8" letter-spacing="-2">AUTOMATE THE</text>
  <text x="80" y="360" font-family="system-ui, -apple-system, sans-serif" font-size="60" font-weight="900" fill="#E8652B" letter-spacing="-2">DREAD AWAY.</text>

  <!-- Subtitle -->
  <text x="80" y="420" font-family="system-ui, -apple-system, sans-serif" font-size="20" fill="#6B6050">Custom automation, workflow engineering, and intelligent integrations.</text>

  <!-- Accent line -->
  <rect x="80" y="450" width="120" height="3" fill="#E8652B"/>

  <!-- URL -->
  <text x="80" y="530" font-family="monospace" font-size="16" fill="#6B6050" letter-spacing="2">NASHVILLEAUTOMATION.IO</text>
</svg>
